<svg xmlns="http://www.w3.org/2000/svg" xmlns:xlink="http://www.w3.org/1999/xlink" width="500" zoomAndPan="magnify" viewBox="0 0 375 119.999999" height="160" preserveAspectRatio="xMidYMid meet" version="1.0"><defs><g/></defs><g fill="#ff5757" fill-opacity="1"><g transform="translate(53.640952, 73.264094)"><g><path d="M 20.761719 -8.414062 C 20.761719 -8.800781 20.6875 -9.492188 20.53125 -9.878906 C 20.453125 -10.1875 20.453125 -10.34375 20.300781 -10.574219 C 20.222656 -10.730469 20.144531 -11.039062 19.992188 -11.191406 C 19.761719 -11.65625 19.375 -12.117188 19.144531 -12.503906 C 18.832031 -13.042969 18.214844 -13.816406 17.753906 -14.589844 C 17.289062 -15.128906 16.59375 -15.824219 15.824219 -16.59375 L 13.972656 -18.292969 C 12.273438 -19.835938 10.730469 -21.535156 9.726562 -22.925781 C 9.726562 -23.15625 9.492188 -23.3125 9.417969 -23.542969 L 9.183594 -24.003906 C 9.109375 -24.082031 9.109375 -24.238281 9.109375 -24.390625 C 8.875 -24.855469 8.800781 -25.394531 8.722656 -26.011719 C 8.722656 -26.628906 8.800781 -27.402344 8.953125 -28.019531 C 8.953125 -28.558594 9.183594 -29.253906 9.570312 -29.5625 C 9.648438 -29.71875 9.804688 -29.792969 9.878906 -29.871094 C 10.1875 -30.027344 10.496094 -30.101562 10.804688 -30.179688 C 11.421875 -30.410156 12.042969 -30.566406 12.734375 -30.722656 C 13.585938 -31.03125 14.28125 -31.261719 15.207031 -31.261719 L 16.363281 -31.261719 C 16.75 -31.261719 17.136719 -31.261719 17.523438 -31.183594 C 17.597656 -31.183594 17.675781 -31.183594 17.753906 -31.105469 C 18.910156 -30.875 20.453125 -30.644531 20.761719 -29.71875 C 20.761719 -28.171875 19.992188 -28.558594 19.835938 -27.941406 C 19.605469 -27.789062 19.375 -27.632812 19.144531 -27.402344 L 19.453125 -27.246094 L 19.761719 -27.246094 C 20.070312 -26.785156 20.53125 -26.320312 21.148438 -26.320312 C 22.691406 -26.398438 23.542969 -29.023438 23.542969 -30.410156 C 23.621094 -30.796875 23.542969 -31.261719 23.386719 -31.570312 C 23.386719 -31.878906 23.234375 -32.109375 22.925781 -32.265625 L 22.925781 -32.339844 C 22.925781 -33.191406 22.382812 -34.039062 21.84375 -34.582031 C 21.148438 -35.199219 20.144531 -35.816406 18.988281 -36.199219 L 17.136719 -36.820312 C 16.980469 -36.820312 16.75 -36.894531 16.519531 -36.972656 C 16.363281 -37.050781 16.210938 -37.050781 16.132812 -37.050781 C 15.976562 -37.128906 15.746094 -37.128906 15.59375 -37.128906 C 14.355469 -37.359375 13.121094 -37.4375 11.886719 -37.4375 C 11.734375 -37.4375 11.65625 -37.4375 11.5 -37.359375 L 11.039062 -37.359375 L 9.109375 -37.128906 L 8.953125 -37.128906 C 8.183594 -36.972656 7.332031 -36.742188 6.5625 -36.511719 L 5.480469 -35.890625 C 4.863281 -35.738281 4.324219 -35.351562 3.859375 -34.8125 L 3.859375 -34.734375 L 3.472656 -34.347656 C 3.164062 -34.195312 3.011719 -33.960938 2.855469 -33.652344 C 2.007812 -32.726562 1.542969 -31.648438 1.699219 -30.257812 C 1.621094 -30.179688 1.542969 -30.027344 1.542969 -29.871094 L 1.542969 -29.101562 C 1.390625 -27.941406 1.851562 -26.320312 2.46875 -25.316406 C 2.394531 -25.242188 2.394531 -25.316406 2.394531 -25.242188 L 3.085938 -22.691406 C 3.242188 -22.308594 3.472656 -22 3.703125 -21.613281 C 4.015625 -21.226562 4.246094 -20.839844 4.476562 -20.453125 C 5.015625 -19.683594 5.710938 -18.832031 6.253906 -18.214844 L 6.792969 -17.523438 L 10.421875 -14.203125 C 11.347656 -13.351562 12.042969 -12.660156 12.734375 -11.808594 C 13.042969 -11.347656 13.738281 -10.804688 14.28125 -10.113281 L 14.589844 -9.726562 C 14.898438 -9.261719 15.050781 -8.722656 15.128906 -8.257812 C 15.207031 -7.488281 15.207031 -6.636719 14.898438 -5.632812 C 14.898438 -5.480469 14.820312 -5.324219 14.820312 -5.171875 C 14.742188 -4.863281 14.589844 -4.707031 14.355469 -4.554688 C 14.355469 -4.167969 13.894531 -4.015625 13.507812 -4.015625 L 11.039062 -3.164062 C 10.1875 -2.777344 9.878906 -2.703125 8.953125 -2.703125 C 8.875 -2.625 8.800781 -2.625 8.722656 -2.625 C 8.644531 -2.625 8.492188 -2.625 8.414062 -2.703125 L 8.257812 -2.703125 C 8.027344 -2.777344 7.875 -2.855469 7.640625 -2.855469 C 7.253906 -2.933594 7.023438 -2.933594 6.636719 -2.933594 C 6.175781 -3.085938 5.632812 -3.164062 5.09375 -3.394531 C 4.632812 -3.472656 4.246094 -3.550781 3.859375 -3.703125 C 3.550781 -3.859375 3.320312 -4.167969 3.164062 -4.632812 C 3.242188 -4.785156 3.164062 -4.707031 3.164062 -5.09375 C 3.242188 -5.558594 3.472656 -5.867188 3.472656 -6.175781 L 3.628906 -6.253906 C 3.550781 -6.40625 3.628906 -6.5625 3.703125 -6.714844 C 3.628906 -6.871094 3.472656 -6.945312 3.394531 -6.945312 C 3.320312 -7.023438 3.085938 -7.023438 2.933594 -6.945312 C 2.855469 -7.023438 2.703125 -7.023438 2.625 -7.023438 C 2.316406 -6.945312 2.007812 -6.792969 1.773438 -6.40625 L 1.390625 -5.867188 C 1.15625 -5.480469 0.925781 -5.015625 0.773438 -4.554688 C 0.695312 -4.398438 0.695312 -4.246094 0.695312 -4.167969 C 0.695312 -3.703125 0.695312 -3.164062 0.773438 -2.703125 L 1.234375 -1.699219 C 1.464844 -1.234375 1.773438 -0.230469 2.316406 0.078125 C 2.46875 0.464844 2.777344 0.773438 3.164062 1.082031 C 3.320312 1.234375 3.550781 1.390625 3.78125 1.464844 C 4.707031 2.007812 5.867188 2.46875 6.792969 2.703125 C 7.253906 2.855469 7.71875 2.933594 8.105469 2.933594 L 8.875 3.164062 C 9.261719 3.242188 9.804688 3.242188 10.265625 3.242188 L 11.269531 3.242188 C 13.585938 3.085938 17.058594 2.160156 17.675781 1.234375 L 18.0625 1.003906 C 18.214844 0.925781 18.371094 0.925781 18.523438 0.925781 C 18.523438 0.847656 18.832031 0.773438 18.910156 0.539062 C 19.835938 0.230469 21.457031 -0.925781 21.765625 -1.929688 C 21.921875 -2.546875 22 -3.011719 22 -3.703125 C 22 -3.859375 22 -3.9375 21.921875 -4.089844 C 22 -4.246094 22.074219 -4.476562 22.074219 -4.632812 L 22.074219 -4.863281 C 22 -5.015625 22.074219 -5.171875 22 -5.402344 C 21.921875 -6.097656 21.691406 -6.871094 21.382812 -7.5625 L 20.839844 -8.492188 C 20.761719 -8.492188 20.839844 -8.414062 20.761719 -8.414062 Z M 20.761719 -8.414062 "/></g></g></g><g fill="#ff5757" fill-opacity="1"><g transform="translate(82.119414, 73.264094)"><g><path d="M 23.386719 -31.183594 C 23.464844 -32.265625 23.695312 -33.652344 23.542969 -34.8125 C 23.234375 -37.746094 18.523438 -39.519531 16.054688 -40.753906 L 15.050781 -40.214844 L 14.898438 -39.75 C 14.589844 -39.519531 12.042969 -32.652344 11.5 -31.648438 C 9.804688 -28.40625 7.5625 -24.46875 6.636719 -20.917969 C 5.789062 -19.761719 3.085938 -17.058594 3.242188 -15.59375 C 3.242188 -15.207031 3.628906 -14.664062 3.9375 -14.511719 L 4.785156 -14.589844 C 3.394531 -11.964844 1.929688 -7.949219 1.15625 -4.863281 L 0.617188 -4.089844 C 0.539062 -3.320312 -0.386719 -1.082031 -0.925781 -0.539062 C -1.003906 0.464844 -1.390625 1.542969 -1.3125 2.625 C -1.082031 3.011719 -1.003906 3.394531 -0.464844 3.394531 L 0.847656 2.625 L 1.3125 2.625 C 2.085938 2.316406 2.238281 1.3125 2.855469 0.773438 L 4.707031 -3.9375 L 4.785156 -3.9375 C 5.867188 -6.636719 7.71875 -9.109375 9.03125 -11.734375 C 11.808594 -12.503906 14.511719 -12.8125 17.210938 -13.894531 C 17.523438 -10.804688 16.828125 -7.71875 17.210938 -4.554688 C 17.445312 -2.316406 18.910156 0 19.144531 2.238281 C 20.070312 3.242188 21.304688 6.175781 23.003906 6.175781 L 23.15625 6.175781 C 25.472656 5.945312 26.320312 5.324219 26.089844 3.011719 C 26.011719 2.394531 25.933594 1.851562 25.625 1.390625 C 25.625 1.15625 25.625 -8.566406 25.472656 -10.265625 C 25.164062 -12.734375 24.3125 -17.597656 24.855469 -19.375 C 25.085938 -19.605469 26.785156 -21.535156 26.785156 -21.691406 C 26.707031 -22.617188 26.167969 -22.617188 25.394531 -22.617188 C 25.316406 -22.539062 25.007812 -22.230469 24.777344 -22.230469 C 24.699219 -22.230469 24.621094 -22.308594 24.546875 -22.460938 L 24.546875 -26.9375 C 24.082031 -28.328125 23.695312 -29.792969 23.386719 -31.183594 Z M 10.1875 -15.667969 C 10.496094 -17.210938 13.585938 -27.632812 14.203125 -28.792969 L 14.898438 -29.484375 L 14.972656 -29.484375 C 15.59375 -29.792969 16.210938 -30.179688 16.75 -30.722656 C 16.828125 -30.488281 16.902344 -30.179688 16.980469 -29.949219 C 17.367188 -25.933594 16.59375 -21.691406 17.058594 -17.597656 C 15.050781 -16.75 12.351562 -15.902344 10.1875 -15.667969 Z M 10.1875 -15.667969 "/></g></g></g><g fill="#ff5757" fill-opacity="1"><g transform="translate(113.993574, 73.264094)"><g><path d="M 2.777344 -6.714844 C 2.855469 -6.175781 2.855469 -5.632812 2.777344 -5.09375 C 2.855469 -4.632812 2.777344 -4.089844 2.777344 -3.628906 L 2.777344 -2.777344 C 2.933594 -1.773438 3.703125 -1.003906 4.324219 -0.617188 C 4.554688 -0.617188 4.785156 -0.695312 5.015625 -0.773438 L 5.480469 -1.082031 C 5.710938 -0.308594 7.179688 0.617188 7.796875 1.082031 L 10.035156 2.160156 C 10.265625 2.238281 10.804688 2.316406 11.113281 2.316406 C 11.269531 2.316406 11.421875 2.238281 11.65625 2.238281 C 12.042969 2.160156 12.351562 2.085938 12.734375 2.085938 C 12.96875 2.007812 13.121094 2.007812 13.351562 2.007812 C 15.359375 1.699219 17.210938 1.15625 19.144531 0.230469 C 21.535156 -0.617188 24.238281 -3.164062 25.316406 -5.480469 L 25.550781 -6.019531 C 26.167969 -7.179688 26.628906 -8.492188 26.785156 -9.804688 C 26.785156 -9.957031 26.863281 -10.1875 26.863281 -10.34375 L 26.863281 -10.960938 L 26.628906 -12.117188 C 26.550781 -12.351562 26.476562 -12.582031 26.476562 -12.8125 C 26.398438 -13.199219 26.242188 -13.507812 26.011719 -13.738281 C 26.011719 -14.203125 25.78125 -14.664062 25.625 -14.972656 C 25.550781 -15.28125 25.394531 -15.4375 25.472656 -15.667969 C 25.316406 -15.824219 25.164062 -15.902344 25.007812 -15.976562 L 25.007812 -16.132812 C 24.46875 -16.59375 24.003906 -16.980469 23.386719 -17.289062 L 22.382812 -17.90625 C 21.765625 -18.292969 20.996094 -18.601562 20.222656 -18.832031 L 19.605469 -19.066406 C 19.992188 -19.453125 20.53125 -19.835938 21.074219 -20.453125 C 22.691406 -22.382812 24.082031 -24.777344 24.160156 -27.246094 C 24.160156 -29.410156 23.234375 -32.109375 21.148438 -33.035156 C 20.53125 -33.421875 19.375 -33.730469 18.601562 -33.808594 L 13.972656 -33.808594 C 13.585938 -33.960938 13.121094 -33.960938 12.660156 -33.960938 C 10.804688 -33.960938 8.414062 -33.113281 5.09375 -32.1875 L 3.242188 -29.71875 C 3.242188 -26.9375 3.242188 -23.542969 3.164062 -20.144531 C 3.164062 -18.988281 3.085938 -17.832031 3.085938 -16.671875 C 3.085938 -14.820312 3.011719 -13.042969 3.011719 -11.421875 L 3.011719 -10.34375 C 3.011719 -9.804688 2.933594 -9.183594 2.777344 -8.644531 C 2.777344 -8.257812 2.777344 -7.949219 2.703125 -7.71875 C 2.777344 -7.332031 2.777344 -7.023438 2.777344 -6.714844 Z M 10.34375 -11.734375 C 10.421875 -12.8125 10.574219 -13.894531 11.191406 -14.664062 L 12.351562 -15.667969 C 13.121094 -15.667969 13.972656 -15.746094 14.664062 -15.746094 C 15.359375 -15.746094 16.054688 -15.746094 16.75 -15.515625 C 17.210938 -15.4375 17.523438 -15.28125 17.90625 -15.207031 L 18.0625 -14.972656 C 19.527344 -14.511719 19.914062 -12.660156 19.914062 -11.347656 C 19.835938 -10.730469 19.21875 -8.644531 18.757812 -8.183594 C 18.449219 -7.640625 18.140625 -7.253906 17.832031 -6.792969 L 17.367188 -6.175781 C 16.054688 -4.707031 14.203125 -3.472656 12.8125 -3.242188 C 11.734375 -3.242188 10.574219 -3.78125 9.804688 -4.632812 L 9.804688 -4.941406 C 9.804688 -5.015625 9.726562 -5.09375 9.726562 -5.171875 L 9.726562 -5.402344 C 9.648438 -5.632812 9.570312 -5.789062 9.570312 -6.019531 C 9.492188 -6.328125 9.492188 -6.5625 9.492188 -6.871094 C 9.492188 -7.023438 9.492188 -7.253906 9.570312 -7.410156 C 9.570312 -7.71875 9.570312 -7.949219 9.648438 -8.183594 L 9.648438 -8.953125 L 9.726562 -9.03125 C 9.726562 -9.109375 9.726562 -9.183594 9.804688 -9.261719 C 9.957031 -9.492188 10.035156 -9.804688 10.113281 -10.035156 L 10.265625 -11.113281 C 10.265625 -11.347656 10.265625 -11.578125 10.34375 -11.734375 Z M 11.5 -25.007812 C 11.5 -26.089844 11.191406 -26.9375 11.347656 -27.941406 C 11.808594 -28.328125 12.425781 -28.867188 12.96875 -29.101562 C 13.351562 -29.332031 13.738281 -29.484375 14.203125 -29.640625 C 14.355469 -29.71875 14.589844 -29.792969 14.820312 -29.792969 C 15.515625 -30.027344 16.132812 -30.027344 16.980469 -30.101562 L 17.136719 -30.101562 C 17.289062 -30.101562 17.445312 -30.101562 17.597656 -30.027344 C 17.675781 -30.027344 17.832031 -30.027344 17.90625 -29.949219 C 18.292969 -29.871094 18.679688 -29.5625 18.988281 -29.332031 C 19.375 -28.945312 19.683594 -28.480469 19.761719 -27.710938 C 18.988281 -23.621094 14.820312 -20.53125 11.039062 -19.296875 C 11.039062 -19.527344 11.039062 -19.761719 10.960938 -19.992188 L 11.191406 -22.769531 C 11.191406 -22.925781 11.269531 -23.15625 11.269531 -23.3125 C 11.347656 -23.621094 11.347656 -24.003906 11.5 -24.3125 Z M 11.5 -25.007812 "/></g></g></g><g fill="#ff5757" fill-opacity="1"><g transform="translate(145.404691, 73.264094)"><g><path d="M 29.332031 -12.351562 C 29.410156 -12.503906 29.410156 -12.660156 29.410156 -12.8125 C 29.410156 -12.96875 29.484375 -13.042969 29.5625 -13.121094 C 29.71875 -13.585938 29.792969 -14.355469 30.027344 -15.050781 L 30.257812 -16.902344 C 30.257812 -17.136719 30.257812 -17.445312 30.335938 -17.832031 L 30.335938 -18.757812 C 30.335938 -18.832031 30.410156 -19.066406 30.410156 -19.144531 C 30.335938 -19.296875 30.410156 -19.527344 30.410156 -19.605469 L 30.410156 -23.078125 C 30.335938 -24.238281 30.179688 -25.316406 29.949219 -25.859375 L 29.949219 -26.476562 C 29.871094 -26.550781 29.5625 -28.019531 29.5625 -28.171875 C 29.484375 -28.480469 29.410156 -28.714844 29.253906 -28.945312 L 29.253906 -29.332031 L 28.480469 -30.644531 C 28.25 -31.03125 28.097656 -31.414062 27.863281 -31.722656 L 27.554688 -32.417969 L 27.015625 -33.113281 L 26.9375 -33.113281 C 26.9375 -33.191406 26.9375 -33.191406 26.863281 -33.269531 C 26.863281 -33.421875 26.785156 -33.5 26.628906 -33.652344 C 26.550781 -33.886719 26.242188 -34.117188 26.167969 -34.269531 L 25.78125 -34.734375 C 25.703125 -34.890625 25.550781 -34.964844 25.394531 -35.121094 L 25.085938 -35.429688 L 24.46875 -35.816406 C 23.621094 -36.664062 22.539062 -37.4375 21.304688 -37.820312 C 21.074219 -37.976562 20.761719 -38.054688 20.53125 -38.128906 L 19.605469 -38.363281 C 19.296875 -38.441406 18.988281 -38.441406 18.757812 -38.441406 C 18.679688 -38.515625 18.679688 -38.515625 18.601562 -38.515625 L 17.832031 -38.515625 C 17.058594 -38.515625 16.210938 -38.441406 15.4375 -38.285156 C 15.28125 -38.285156 15.128906 -38.207031 14.972656 -38.128906 C 13.972656 -37.898438 12.96875 -37.511719 12.195312 -36.820312 C 11.65625 -36.511719 11.269531 -36.199219 10.804688 -35.738281 L 10.574219 -35.351562 L 10.496094 -35.351562 L 9.183594 -34.039062 L 8.722656 -33.421875 C 8.027344 -32.726562 7.5625 -31.957031 7.101562 -31.105469 L 6.253906 -29.640625 C 6.175781 -29.410156 5.945312 -29.253906 5.945312 -29.023438 L 5.558594 -28.714844 C 5.480469 -28.558594 5.402344 -28.40625 5.25 -28.25 C 5.09375 -28.019531 4.863281 -27.789062 4.785156 -27.480469 L 4.554688 -27.09375 C 4.015625 -25.859375 3.394531 -24.46875 2.933594 -22.847656 C 2.625 -21.457031 2.238281 -19.992188 2.085938 -18.523438 C 2.007812 -17.90625 1.929688 -17.289062 1.929688 -16.671875 L 1.929688 -14.820312 C 1.929688 -14.28125 1.929688 -13.664062 2.007812 -13.042969 C 2.007812 -12.8125 2.085938 -12.660156 2.085938 -12.351562 C 2.238281 -10.960938 2.625 -9.417969 3.242188 -8.105469 L 3.9375 -7.875 C 4.015625 -7.332031 4.167969 -6.792969 4.324219 -6.253906 C 4.398438 -5.867188 4.554688 -5.480469 4.707031 -5.09375 L 5.558594 -3.394531 C 5.632812 -3.164062 5.710938 -2.777344 5.710938 -2.546875 C 5.867188 -2.085938 6.175781 -1.699219 6.40625 -1.3125 L 6.636719 -0.773438 C 7.332031 0.078125 8.027344 0.773438 8.953125 1.234375 C 9.417969 1.542969 10.035156 1.773438 10.652344 2.007812 L 11.347656 2.238281 C 11.421875 2.316406 11.886719 2.394531 11.964844 2.394531 C 12.425781 2.546875 12.8125 2.546875 13.351562 2.546875 L 14.664062 2.546875 L 15.746094 2.394531 C 16.285156 2.316406 16.75 2.160156 17.210938 2.007812 C 17.289062 2.007812 17.445312 1.929688 17.523438 1.851562 L 17.90625 1.621094 C 17.984375 1.621094 18.832031 1.464844 18.910156 1.464844 C 19.835938 1.15625 20.6875 0.773438 21.457031 0.230469 C 22.230469 -0.15625 22.925781 -0.695312 23.464844 -1.234375 C 24.082031 -1.773438 24.546875 -2.394531 24.855469 -3.011719 L 24.855469 -3.085938 L 25.78125 -4.398438 C 26.167969 -5.015625 26.707031 -5.710938 27.015625 -6.484375 C 27.246094 -6.945312 27.402344 -7.410156 27.632812 -7.875 L 27.941406 -8.492188 C 28.019531 -8.800781 28.171875 -8.953125 28.25 -9.261719 L 28.636719 -10.34375 C 28.945312 -10.804688 29.101562 -11.421875 29.253906 -11.886719 C 29.253906 -12.117188 29.253906 -12.273438 29.332031 -12.351562 Z M 25.703125 -14.742188 C 25.550781 -14.28125 25.550781 -13.738281 25.394531 -13.277344 L 25.394531 -13.042969 C 25.316406 -13.042969 25.316406 -12.96875 25.316406 -12.890625 C 25.316406 -12.582031 25.242188 -12.273438 25.164062 -11.964844 C 25.164062 -11.886719 25.164062 -11.734375 25.085938 -11.65625 C 25.007812 -11.113281 24.855469 -10.574219 24.699219 -10.113281 C 24.699219 -10.035156 24.621094 -9.957031 24.621094 -9.957031 L 23.464844 -7.023438 L 23.003906 -6.253906 C 22.847656 -5.945312 22.691406 -5.632812 22.460938 -5.402344 L 21.921875 -4.707031 C 21.691406 -4.476562 21.535156 -4.246094 21.304688 -4.089844 C 21.148438 -3.9375 21.074219 -3.78125 20.839844 -3.703125 C 20.609375 -3.394531 20.300781 -3.085938 19.992188 -2.855469 L 18.449219 -1.699219 C 18.140625 -1.542969 17.753906 -1.390625 17.289062 -1.390625 C 16.902344 -1.234375 16.59375 -1.234375 16.363281 -1.234375 L 15.976562 -1.234375 C 15.824219 -1.234375 15.667969 -1.15625 15.515625 -1.15625 L 15.359375 -1.15625 C 15.207031 -1.15625 15.128906 -1.234375 14.898438 -1.234375 L 14.203125 -1.699219 C 14.125 -1.773438 13.894531 -1.851562 13.738281 -2.007812 C 13.664062 -2.085938 13.507812 -2.160156 13.429688 -2.316406 L 12.890625 -3.011719 C 12.425781 -3.472656 12.273438 -3.859375 12.042969 -4.324219 C 11.886719 -4.476562 11.808594 -4.707031 11.734375 -4.941406 C 11.347656 -5.710938 11.191406 -6.5625 11.113281 -7.5625 L 11.113281 -8.257812 C 11.113281 -8.644531 11.191406 -9.109375 11.269531 -9.492188 C 11.269531 -9.804688 11.347656 -10.035156 11.421875 -10.265625 C 11.421875 -10.34375 11.578125 -10.34375 11.578125 -10.421875 L 11.269531 -10.421875 C 11.269531 -10.496094 11.191406 -10.652344 11.191406 -10.730469 C 11.113281 -11.421875 11.039062 -12.195312 11.113281 -12.96875 L 10.804688 -12.96875 L 10.730469 -13.042969 L 10.960938 -13.585938 C 10.882812 -14.125 10.804688 -14.589844 10.882812 -15.128906 L 10.882812 -15.4375 C 10.804688 -15.746094 10.882812 -15.976562 10.960938 -16.363281 L 10.960938 -17.753906 C 11.039062 -18.140625 11.039062 -18.449219 11.039062 -18.832031 L 11.269531 -20.070312 C 11.269531 -20.300781 11.347656 -20.53125 11.421875 -20.761719 C 11.421875 -20.839844 11.65625 -20.996094 11.65625 -21.148438 L 11.886719 -21.765625 L 12.117188 -22.769531 C 12.273438 -23.464844 12.503906 -24.160156 12.8125 -24.777344 L 12.8125 -24.933594 C 12.890625 -24.933594 12.96875 -24.855469 12.96875 -24.855469 C 13.042969 -24.855469 13.042969 -25.085938 13.042969 -25.085938 L 13.042969 -25.242188 L 13.121094 -25.316406 L 13.042969 -25.316406 C 13.199219 -25.625 13.429688 -25.78125 13.585938 -25.933594 L 13.585938 -26.398438 C 13.585938 -26.476562 13.585938 -26.628906 13.664062 -26.707031 C 13.664062 -26.785156 13.664062 -26.9375 13.738281 -27.015625 C 13.972656 -27.632812 14.125 -28.25 14.511719 -28.867188 C 14.742188 -29.410156 15.128906 -29.949219 15.515625 -30.488281 L 15.902344 -31.183594 C 16.054688 -31.339844 16.363281 -31.492188 16.519531 -31.722656 C 16.828125 -32.109375 17.289062 -32.496094 17.832031 -32.726562 C 18.214844 -32.960938 18.523438 -33.191406 18.988281 -33.34375 L 19.914062 -33.652344 C 19.992188 -33.652344 20.070312 -33.730469 20.144531 -33.730469 C 20.222656 -33.730469 20.378906 -33.808594 20.453125 -33.808594 C 20.761719 -33.808594 21.074219 -33.808594 21.382812 -33.730469 C 21.382812 -33.730469 21.457031 -33.730469 21.535156 -33.652344 L 21.613281 -33.652344 C 21.921875 -33.5 22.460938 -33.269531 22.691406 -33.035156 C 23.464844 -32.652344 24.699219 -31.414062 25.007812 -30.566406 C 25.164062 -30.257812 25.316406 -29.871094 25.394531 -29.5625 C 25.550781 -29.175781 25.625 -28.792969 25.703125 -28.480469 C 25.703125 -28.25 26.089844 -26.863281 26.167969 -26.628906 L 26.550781 -24.933594 C 26.628906 -24.621094 26.628906 -24.390625 26.628906 -24.238281 C 26.628906 -24.003906 26.707031 -23.851562 26.628906 -23.621094 C 26.707031 -23.15625 26.707031 -22.769531 26.628906 -22.382812 L 26.628906 -21.613281 C 26.628906 -20.761719 26.476562 -20.070312 26.398438 -19.21875 C 26.398438 -18.988281 26.320312 -18.832031 26.320312 -18.679688 C 26.242188 -17.597656 26.011719 -16.519531 25.859375 -15.59375 C 25.859375 -15.28125 25.703125 -15.050781 25.703125 -14.742188 Z M 25.703125 -14.742188 "/></g></g></g><g fill="#ff5757" fill-opacity="1"><g transform="translate(181.369136, 73.264094)"><g><path d="M 21.535156 -10.113281 C 21.457031 -10.882812 18.601562 -17.289062 17.90625 -17.597656 C 22.382812 -21.304688 29.023438 -26.242188 29.023438 -32.652344 C 29.023438 -36.664062 24.855469 -40.445312 20.996094 -40.445312 C 16.902344 -40.445312 13.738281 -37.28125 11.191406 -34.347656 C 11.039062 -34.734375 10.960938 -35.199219 11.039062 -35.582031 C 10.574219 -36.433594 10.035156 -37.203125 9.339844 -37.898438 C 9.03125 -37.976562 8.800781 -38.054688 8.492188 -38.054688 C 7.410156 -38.054688 6.484375 -37.359375 5.480469 -37.359375 L 5.402344 -37.4375 L 4.476562 -37.359375 C 3.550781 -37.28125 2.703125 -36.433594 2.703125 -35.507812 L 2.933594 -35.042969 L 3.550781 -35.273438 C 4.324219 -34.347656 4.398438 -32.726562 4.246094 -31.570312 L 4.476562 -30.953125 C 3.9375 -29.332031 1.542969 -6.253906 1.542969 -3.085938 C 1.542969 -2.160156 2.703125 0.617188 3.703125 0.773438 L 4.707031 0.15625 C 5.480469 0.925781 6.636719 1.464844 7.71875 1.464844 C 8.492188 1.464844 9.417969 0.925781 9.417969 0.078125 C 9.109375 -0.695312 8.875 -1.542969 8.875 -2.316406 C 8.875 -4.398438 10.960938 -10.496094 10.960938 -15.28125 L 12.117188 -15.59375 L 12.734375 -15.050781 L 12.660156 -14.820312 C 16.59375 -11.65625 17.753906 3.394531 23.542969 3.394531 C 24.160156 3.394531 24.699219 3.394531 25.242188 3.011719 L 25.472656 3.085938 L 26.167969 2.777344 C 26.398438 2.316406 27.171875 1.234375 27.171875 0.695312 C 27.171875 -0.15625 26.628906 -0.695312 26.320312 -1.464844 C 26.398438 -1.3125 26.320312 -1.234375 26.242188 -1.234375 C 26.167969 -1.234375 26.089844 -1.3125 26.089844 -1.464844 L 26.167969 -1.542969 C 25.933594 -2.085938 25.550781 -2.625 25.164062 -3.085938 L 25.242188 -3.164062 C 25.164062 -3.394531 24.933594 -3.703125 24.933594 -3.9375 L 25.007812 -4.089844 L 24.3125 -5.25 L 24.390625 -5.402344 C 24.003906 -5.867188 23.851562 -6.019531 23.851562 -6.019531 C 23.851562 -6.019531 24.082031 -5.710938 24.003906 -5.710938 L 23.386719 -6.328125 C 23.078125 -6.636719 22.847656 -6.945312 22.691406 -7.332031 C 23.3125 -7.949219 22.152344 -7.875 22.152344 -8.722656 L 22 -8.800781 L 21.765625 -9.417969 L 21.84375 -9.648438 Z M 18.910156 -35.660156 C 20.070312 -35.660156 20.53125 -35.121094 20.53125 -33.960938 C 20.53125 -31.492188 18.292969 -25.933594 16.902344 -23.773438 C 15.824219 -22.074219 14.28125 -21.535156 12.8125 -20.300781 L 12.660156 -20.300781 L 12.273438 -19.992188 C 12.117188 -20.609375 11.65625 -21.304688 11.191406 -21.691406 L 11.113281 -22.382812 C 11.113281 -26.242188 13.277344 -29.792969 13.277344 -33.34375 C 14.355469 -34.269531 15.359375 -35.507812 16.828125 -35.507812 C 16.980469 -35.507812 17.136719 -35.507812 17.367188 -35.429688 L 17.675781 -35.582031 Z M 18.910156 -35.660156 "/></g></g></g><g fill="#ff914d" fill-opacity="1"><g transform="translate(186.930139, 111.073836)"><g><path d="M 7.257812 -11.496094 C 6.355469 -12.554688 5.335938 -13.96875 5.335938 -15.382812 C 6.277344 -15.65625 7.0625 -16.324219 8.042969 -16.324219 C 8.75 -16.324219 10.242188 -16.125 10.75 -15.617188 L 10.988281 -15.65625 L 11.183594 -15.617188 C 11.261719 -15.183594 11.457031 -14.359375 11.929688 -14.125 L 12.242188 -14.320312 L 12.4375 -14.242188 C 12.871094 -14.242188 13.027344 -15.144531 13.027344 -15.460938 C 13.027344 -17.695312 11.027344 -19.421875 9.0625 -19.933594 L 8.945312 -19.894531 C 8.632812 -20.011719 8.277344 -20.050781 7.925781 -20.050781 C 6.042969 -20.050781 3.101562 -19.421875 2.394531 -17.34375 C 2.550781 -17.226562 2.394531 -17.027344 2.472656 -16.871094 C 2.238281 -16.714844 1.921875 -16.441406 1.921875 -16.125 C 1.921875 -14.988281 2.628906 -13.890625 2.628906 -13.261719 C 2.628906 -13.222656 2.667969 -13.066406 2.589844 -13.066406 C 3.726562 -10.164062 8.632812 -7.613281 8.632812 -4.945312 C 8.632812 -3.492188 7.730469 -0.707031 6.003906 -0.707031 C 5.101562 -0.707031 4.433594 -1.058594 3.609375 -1.335938 L 2.628906 -1.53125 C 2 -1.6875 2.117188 -2.039062 2.039062 -2.824219 L 2.039062 -2.941406 C 2.039062 -3.296875 1.453125 -3.570312 0.902344 -3.570312 C 0.390625 -3.570312 -0.078125 -3.335938 -0.078125 -2.863281 C -0.078125 0.550781 3.058594 2.394531 6.199219 2.394531 C 11.144531 2.394531 12.554688 0.234375 12.554688 -4.199219 L 12.632812 -4.277344 C 12.28125 -5.730469 11.691406 -6.355469 11.144531 -7.613281 C 11.144531 -8.515625 7.925781 -10.710938 7.21875 -11.417969 Z M 7.257812 -11.496094 "/></g></g></g><g fill="#ff914d" fill-opacity="1"><g transform="translate(200.897537, 111.073836)"><g><path d="M 9.613281 -12.046875 C 9.222656 -12.046875 5.648438 -11.613281 5.453125 -11.535156 C 5.609375 -12.164062 5.964844 -12.320312 5.964844 -13.027344 C 5.964844 -13.457031 5.847656 -13.851562 5.691406 -14.242188 C 5.847656 -14.675781 5.453125 -15.851562 5.453125 -16.402344 L 5.492188 -16.558594 C 5.730469 -16.910156 5.769531 -17.382812 5.847656 -17.773438 L 6.003906 -17.773438 C 6.238281 -17.773438 6.75 -17.617188 6.984375 -17.539062 L 7.023438 -17.578125 L 7.296875 -17.5 L 7.335938 -17.5 L 7.613281 -17.851562 L 7.847656 -17.890625 L 8.042969 -17.8125 L 8.320312 -17.890625 C 8.515625 -17.851562 8.710938 -17.8125 8.90625 -17.8125 C 9.496094 -17.8125 10.085938 -18.011719 10.671875 -18.011719 C 10.828125 -18.011719 10.988281 -18.011719 11.144531 -17.972656 C 11.339844 -18.011719 11.574219 -18.167969 11.769531 -18.167969 L 11.929688 -18.089844 C 12.28125 -18.128906 12.398438 -18.558594 12.515625 -18.875 L 12.398438 -19.1875 L 12.4375 -19.304688 C 12.28125 -19.5 12.007812 -19.777344 11.730469 -19.777344 C 8.4375 -19.777344 5.257812 -19.539062 1.960938 -19.109375 L 2.15625 -19.109375 C 2.628906 -19.109375 1.726562 -18.753906 2.199219 -17.460938 L 2.355469 -17.5 L 2.667969 -16.988281 C 2.550781 -15.261719 2.117188 -13.535156 2.117188 -11.769531 C 2 -11.535156 1.882812 -11.261719 2.078125 -9.652344 C 2.078125 -7.101562 1.136719 -4.355469 1.214844 -1.882812 L 1.414062 -1.375 C 1.097656 -0.824219 2.199219 0.15625 2.746094 0.15625 C 2.941406 -0.117188 3.21875 -0.390625 3.570312 -0.390625 L 3.6875 -0.511719 C 4.277344 -0.511719 8.003906 -0.667969 8.320312 -0.902344 L 8.515625 -0.863281 C 10.003906 -1.414062 11.890625 -0.746094 11.890625 -2.785156 C 11.890625 -3.21875 11.851562 -3.84375 11.300781 -3.84375 C 10.042969 -3.84375 8.75 -2.902344 7.535156 -2.902344 L 6.511719 -2.941406 L 6.433594 -2.902344 L 6.316406 -2.902344 C 5.769531 -2.902344 5.296875 -2.667969 4.746094 -2.589844 C 4.984375 -3.570312 4.746094 -7.925781 5.609375 -7.925781 L 5.570312 -7.925781 L 5.925781 -8.710938 C 5.886719 -8.945312 5.925781 -9.222656 6.003906 -9.457031 L 5.925781 -9.730469 L 6.003906 -9.925781 L 6.277344 -9.808594 C 6.632812 -9.769531 8.789062 -10.085938 9.0625 -10.320312 C 9.261719 -10.320312 9.457031 -10.320312 9.613281 -10.28125 C 10.003906 -10.398438 10.28125 -10.988281 10.398438 -11.339844 C 10.320312 -11.691406 10.003906 -12.046875 9.613281 -12.046875 Z M 9.613281 -12.046875 "/></g></g></g><g fill="#ff914d" fill-opacity="1"><g transform="translate(213.020914, 111.073836)"><g><path d="M 16.441406 -16.125 C 16.402344 -16.597656 16.324219 -17.070312 16.246094 -17.578125 C 16.207031 -17.695312 16.207031 -17.773438 16.207031 -17.890625 C 16.164062 -17.972656 16.125 -18.050781 16.125 -18.167969 C 16.085938 -18.324219 16.007812 -18.519531 15.890625 -18.714844 C 15.773438 -18.992188 15.578125 -19.226562 15.34375 -19.460938 C 15.144531 -19.738281 14.832031 -19.933594 14.519531 -20.011719 C 14.480469 -20.050781 14.398438 -20.050781 14.359375 -20.050781 C 14.203125 -20.050781 14.046875 -19.972656 13.929688 -19.816406 C 13.65625 -19.5 13.417969 -18.636719 13.261719 -18.324219 C 13.027344 -17.890625 12.632812 -17.226562 12.4375 -16.753906 L 12.007812 -15.96875 L 11.851562 -15.578125 L 10.632812 -13.261719 L 9.417969 -11.183594 C 9.140625 -10.710938 8.945312 -10.164062 8.75 -9.652344 C 8.75 -9.535156 8.671875 -9.457031 8.632812 -9.339844 C 8.515625 -9.613281 8.4375 -9.886719 8.320312 -10.125 C 8.238281 -10.320312 8.160156 -10.4375 8.121094 -10.632812 C 8.003906 -10.90625 7.886719 -11.222656 7.808594 -11.496094 C 7.535156 -12.125 7.296875 -12.753906 7.023438 -13.339844 L 6.199219 -15.460938 L 6.042969 -16.007812 C 6.003906 -16.363281 5.925781 -16.675781 5.769531 -17.070312 C 5.730469 -17.148438 5.648438 -17.304688 5.570312 -17.382812 C 5.296875 -17.734375 5.101562 -18.128906 4.90625 -18.402344 L 4.550781 -18.835938 C 4.277344 -19.109375 3.964844 -19.382812 3.648438 -19.617188 C 3.453125 -19.738281 3.21875 -19.816406 2.980469 -19.894531 C 2.824219 -19.933594 2.667969 -19.933594 2.511719 -19.933594 C 2.316406 -19.894531 2.199219 -19.777344 2.15625 -19.617188 C 2.078125 -19.539062 2 -19.382812 2.039062 -19.265625 L 2.039062 -18.050781 C 2.078125 -17.773438 2.078125 -17.460938 2.039062 -17.148438 C 1.960938 -16.480469 1.921875 -15.773438 1.882812 -15.105469 C 1.882812 -14.910156 1.84375 -14.558594 1.804688 -14.398438 L 1.804688 -13.535156 C 1.765625 -12.753906 1.648438 -11.96875 1.570312 -11.183594 L 1.492188 -10.515625 C 1.53125 -10.359375 1.492188 -10.203125 1.492188 -10.042969 L 1.492188 -9.964844 C 1.453125 -9.261719 1.414062 -8.554688 1.335938 -7.847656 L 1.175781 -6.632812 L 1.097656 -5.648438 C 1.097656 -5.53125 1.058594 -5.414062 1.058594 -5.296875 C 0.980469 -4.472656 0.902344 -3.6875 0.863281 -2.941406 L 0.863281 -2.667969 C 0.863281 -2.355469 0.902344 -2.039062 0.941406 -1.726562 L 0.941406 -1.453125 C 1.058594 -0.785156 1.492188 -0.351562 2.238281 -0.273438 C 2.277344 -0.273438 2.277344 -0.3125 2.316406 -0.3125 C 2.355469 -0.273438 2.472656 -0.273438 2.589844 -0.195312 L 2.628906 -0.15625 C 2.746094 -0.117188 2.902344 -0.078125 3.019531 -0.078125 L 3.101562 -0.078125 C 3.296875 -0.117188 3.453125 -0.15625 3.609375 -0.234375 C 3.726562 -0.351562 3.84375 -0.472656 3.964844 -0.667969 L 4.316406 -1.492188 L 4.394531 -1.804688 C 4.472656 -2.472656 4.472656 -3.140625 4.511719 -3.765625 L 4.511719 -4.550781 L 4.628906 -5.808594 C 4.628906 -6.003906 4.628906 -6.199219 4.667969 -6.394531 C 4.707031 -6.90625 4.828125 -7.496094 4.90625 -7.964844 C 4.945312 -8.199219 4.90625 -8.398438 4.945312 -8.59375 C 4.945312 -8.710938 4.984375 -8.789062 4.984375 -8.90625 C 5.023438 -9.339844 5.101562 -9.769531 5.101562 -10.242188 L 5.101562 -10.828125 C 5.179688 -11.261719 5.179688 -11.691406 5.21875 -12.125 L 6.355469 -9.339844 L 6.59375 -8.90625 L 7.808594 -6.003906 L 7.925781 -5.808594 C 7.964844 -5.691406 8.042969 -5.570312 8.121094 -5.53125 L 8.121094 -5.492188 C 8.121094 -5.414062 8.121094 -5.375 8.160156 -5.335938 C 8.238281 -4.984375 8.4375 -4.667969 8.671875 -4.550781 C 9.023438 -4.589844 9.339844 -4.707031 9.574219 -4.984375 L 9.769531 -5.335938 C 9.808594 -5.453125 9.847656 -5.609375 9.925781 -5.769531 L 10.203125 -6.316406 C 10.28125 -6.394531 10.359375 -6.550781 10.398438 -6.671875 L 10.632812 -7.140625 C 10.949219 -7.847656 11.300781 -8.554688 11.691406 -9.222656 C 11.769531 -9.417969 11.890625 -9.574219 12.007812 -9.730469 L 12.476562 -10.476562 L 13.105469 -11.730469 L 13.105469 -11.691406 C 13.027344 -11.027344 12.910156 -10.359375 12.792969 -9.730469 L 12.714844 -8.476562 L 12.714844 -7.886719 C 12.671875 -6.945312 12.632812 -5.847656 12.671875 -4.785156 L 12.792969 -2.863281 C 12.792969 -2.785156 12.832031 -2.707031 12.832031 -2.628906 C 12.949219 -1.453125 13.261719 -0.273438 14.046875 0.078125 C 14.203125 0.195312 14.320312 0.273438 14.480469 0.273438 C 14.519531 0.390625 14.675781 0.589844 14.910156 0.667969 L 15.066406 0.902344 C 15.105469 0.902344 15.105469 0.902344 15.144531 0.941406 C 15.183594 0.980469 15.261719 1.019531 15.300781 1.019531 C 15.34375 1.058594 15.382812 1.058594 15.421875 1.058594 C 15.460938 1.058594 15.539062 1.058594 15.578125 1.019531 C 15.734375 0.980469 15.890625 0.863281 16.007812 0.746094 C 16.246094 0.550781 16.402344 0.234375 16.519531 0 C 16.636719 -0.078125 16.714844 -0.273438 16.753906 -0.390625 L 16.597656 -1.019531 C 16.558594 -1.175781 16.519531 -1.375 16.519531 -1.609375 L 16.402344 -3.101562 L 16.402344 -3.84375 C 16.402344 -4.394531 16.519531 -5.023438 16.480469 -5.570312 C 16.480469 -5.769531 16.441406 -5.964844 16.402344 -6.160156 L 16.324219 -6.160156 L 16.324219 -6.433594 C 16.363281 -6.632812 16.480469 -6.671875 16.558594 -6.710938 C 16.558594 -6.828125 16.519531 -6.984375 16.519531 -7.21875 L 16.519531 -9.261719 C 16.480469 -9.457031 16.480469 -9.613281 16.480469 -9.808594 C 16.441406 -10.75 16.441406 -11.730469 16.402344 -12.28125 L 16.363281 -12.242188 L 16.363281 -12.554688 C 16.363281 -13.535156 16.402344 -14.675781 16.441406 -15.65625 Z M 16.441406 -16.125 "/></g></g></g><g fill="#ff914d" fill-opacity="1"><g transform="translate(231.539474, 111.073836)"><g/></g></g><g fill="#ff914d" fill-opacity="1"><g transform="translate(238.837045, 111.073836)"><g><path d="M 12.476562 -16.246094 C 12.59375 -16.402344 12.792969 -17.65625 12.792969 -17.851562 C 12.792969 -19.1875 10.867188 -19.972656 9.730469 -19.972656 C 3.179688 -19.972656 0.863281 -10.90625 0.863281 -5.609375 C 0.863281 -2.039062 2.628906 1.292969 6.710938 1.292969 C 9.691406 1.292969 13.535156 -2.15625 14.085938 -4.394531 L 14.085938 -4.550781 C 14.046875 -4.867188 14.125 -5.21875 14.046875 -5.53125 L 13.734375 -5.691406 C 12.085938 -5.691406 13.144531 -3.6875 11.066406 -2.980469 C 10.476562 -2.199219 9.535156 -1.726562 8.710938 -1.214844 C 7.691406 -1.214844 7.257812 -2.277344 6.355469 -2.589844 C 5.101562 -3.84375 5.609375 -5.691406 5.0625 -7.101562 C 5.492188 -9.261719 7.101562 -17.8125 9.925781 -17.851562 C 10.042969 -17.8125 10.164062 -17.773438 10.28125 -17.773438 C 10.476562 -17.773438 10.710938 -17.8125 10.867188 -17.8125 C 11.105469 -17.8125 11.261719 -17.773438 11.261719 -17.578125 C 11.261719 -17.265625 11.105469 -16.125 10.949219 -15.851562 L 11.027344 -15.8125 L 11.144531 -15.851562 C 11.261719 -15.8125 11.730469 -15.617188 11.8125 -15.617188 C 12.125 -15.617188 12.398438 -15.773438 12.515625 -16.085938 Z M 12.476562 -16.246094 "/></g></g></g><g fill="#ff914d" fill-opacity="1"><g transform="translate(252.804443, 111.073836)"><g><path d="M 11.890625 -15.851562 C 11.929688 -16.402344 12.046875 -17.109375 11.96875 -17.695312 C 11.8125 -19.1875 9.417969 -20.089844 8.160156 -20.71875 L 7.652344 -20.441406 L 7.574219 -20.207031 C 7.414062 -20.089844 6.121094 -16.597656 5.847656 -16.085938 C 4.984375 -14.441406 3.84375 -12.4375 3.375 -10.632812 C 2.941406 -10.042969 1.570312 -8.671875 1.648438 -7.925781 C 1.648438 -7.730469 1.84375 -7.457031 2 -7.375 L 2.433594 -7.414062 C 1.726562 -6.082031 0.980469 -4.042969 0.589844 -2.472656 L 0.3125 -2.078125 C 0.273438 -1.6875 -0.195312 -0.550781 -0.472656 -0.273438 C -0.511719 0.234375 -0.707031 0.785156 -0.667969 1.335938 C -0.550781 1.53125 -0.511719 1.726562 -0.234375 1.726562 L 0.429688 1.335938 L 0.667969 1.335938 C 1.058594 1.175781 1.136719 0.667969 1.453125 0.390625 L 2.394531 -2 L 2.433594 -2 C 2.980469 -3.375 3.921875 -4.628906 4.589844 -5.964844 C 6.003906 -6.355469 7.375 -6.511719 8.75 -7.0625 C 8.90625 -5.492188 8.554688 -3.921875 8.75 -2.316406 C 8.867188 -1.175781 9.613281 0 9.730469 1.136719 C 10.203125 1.648438 10.828125 3.140625 11.691406 3.140625 L 11.769531 3.140625 C 12.949219 3.019531 13.378906 2.707031 13.261719 1.53125 C 13.222656 1.214844 13.183594 0.941406 13.027344 0.707031 C 13.027344 0.589844 13.027344 -4.355469 12.949219 -5.21875 C 12.792969 -6.472656 12.359375 -8.945312 12.632812 -9.847656 C 12.753906 -9.964844 13.617188 -10.949219 13.617188 -11.027344 C 13.578125 -11.496094 13.300781 -11.496094 12.910156 -11.496094 C 12.871094 -11.457031 12.714844 -11.300781 12.59375 -11.300781 C 12.554688 -11.300781 12.515625 -11.339844 12.476562 -11.417969 L 12.476562 -13.695312 C 12.242188 -14.398438 12.046875 -15.144531 11.890625 -15.851562 Z M 5.179688 -7.964844 C 5.335938 -8.75 6.90625 -14.046875 7.21875 -14.636719 L 7.574219 -14.988281 L 7.613281 -14.988281 C 7.925781 -15.144531 8.238281 -15.34375 8.515625 -15.617188 C 8.554688 -15.5 8.59375 -15.34375 8.632812 -15.222656 C 8.828125 -13.183594 8.4375 -11.027344 8.671875 -8.945312 C 7.652344 -8.515625 6.277344 -8.082031 5.179688 -7.964844 Z M 5.179688 -7.964844 "/></g></g></g><g fill="#ff914d" fill-opacity="1"><g transform="translate(267.164182, 111.073836)"><g><path d="M 10.949219 -5.140625 C 10.90625 -5.53125 9.457031 -8.789062 9.101562 -8.945312 C 11.378906 -10.828125 14.753906 -13.339844 14.753906 -16.597656 C 14.753906 -18.636719 12.632812 -20.5625 10.671875 -20.5625 C 8.59375 -20.5625 6.984375 -18.953125 5.691406 -17.460938 C 5.609375 -17.65625 5.570312 -17.890625 5.609375 -18.089844 C 5.375 -18.519531 5.101562 -18.914062 4.746094 -19.265625 C 4.589844 -19.304688 4.472656 -19.34375 4.316406 -19.34375 C 3.765625 -19.34375 3.296875 -18.992188 2.785156 -18.992188 L 2.746094 -19.03125 L 2.277344 -18.992188 C 1.804688 -18.953125 1.375 -18.519531 1.375 -18.050781 L 1.492188 -17.8125 L 1.804688 -17.933594 C 2.199219 -17.460938 2.238281 -16.636719 2.15625 -16.046875 L 2.277344 -15.734375 C 2 -14.910156 0.785156 -3.179688 0.785156 -1.570312 C 0.785156 -1.097656 1.375 0.3125 1.882812 0.390625 L 2.394531 0.078125 C 2.785156 0.472656 3.375 0.746094 3.921875 0.746094 C 4.316406 0.746094 4.785156 0.472656 4.785156 0.0390625 C 4.628906 -0.351562 4.511719 -0.785156 4.511719 -1.175781 C 4.511719 -2.238281 5.570312 -5.335938 5.570312 -7.769531 L 6.160156 -7.925781 L 6.472656 -7.652344 L 6.433594 -7.535156 C 8.4375 -5.925781 9.023438 1.726562 11.96875 1.726562 C 12.28125 1.726562 12.554688 1.726562 12.832031 1.53125 L 12.949219 1.570312 L 13.300781 1.414062 C 13.417969 1.175781 13.8125 0.628906 13.8125 0.351562 C 13.8125 -0.078125 13.535156 -0.351562 13.378906 -0.746094 C 13.417969 -0.667969 13.378906 -0.628906 13.339844 -0.628906 C 13.300781 -0.628906 13.261719 -0.667969 13.261719 -0.746094 L 13.300781 -0.785156 C 13.183594 -1.058594 12.988281 -1.335938 12.792969 -1.570312 L 12.832031 -1.609375 C 12.792969 -1.726562 12.671875 -1.882812 12.671875 -2 L 12.714844 -2.078125 L 12.359375 -2.667969 L 12.398438 -2.746094 C 12.203125 -2.980469 12.125 -3.058594 12.125 -3.058594 C 12.125 -3.058594 12.242188 -2.902344 12.203125 -2.902344 L 11.890625 -3.21875 C 11.730469 -3.375 11.613281 -3.53125 11.535156 -3.726562 C 11.851562 -4.042969 11.261719 -4.003906 11.261719 -4.433594 L 11.183594 -4.472656 L 11.066406 -4.785156 L 11.105469 -4.90625 Z M 9.613281 -18.128906 C 10.203125 -18.128906 10.4375 -17.851562 10.4375 -17.265625 C 10.4375 -16.007812 9.300781 -13.183594 8.59375 -12.085938 C 8.042969 -11.222656 7.257812 -10.949219 6.511719 -10.320312 L 6.433594 -10.320312 L 6.238281 -10.164062 C 6.160156 -10.476562 5.925781 -10.828125 5.691406 -11.027344 L 5.648438 -11.378906 C 5.648438 -13.339844 6.75 -15.144531 6.75 -16.949219 C 7.296875 -17.421875 7.808594 -18.050781 8.554688 -18.050781 C 8.632812 -18.050781 8.710938 -18.050781 8.828125 -18.011719 L 8.984375 -18.089844 Z M 9.613281 -18.128906 "/></g></g></g><g fill="#ff914d" fill-opacity="1"><g transform="translate(281.759324, 111.073836)"><g><path d="M 9.730469 -6.355469 L 9.652344 -6.277344 C 8.160156 -9.652344 6.472656 -12.910156 5.0625 -16.285156 C 4.589844 -17.382812 3.6875 -18.441406 2.394531 -18.441406 C 1.570312 -18.441406 1.492188 -17.34375 1.492188 -16.832031 C 1.492188 -13.535156 1.136719 -10.164062 1.136719 -6.90625 C 1.136719 -5.296875 0.980469 -3.765625 0.980469 -2.238281 C 0.980469 -0.824219 1.097656 0.902344 2.863281 0.863281 C 3.019531 0.980469 3.21875 1.097656 3.414062 1.097656 C 3.804688 1.097656 3.804688 0.550781 4.121094 0.429688 C 4.121094 -0.15625 4.472656 -0.746094 4.472656 -1.253906 C 4.472656 -2.628906 4.199219 -4.355469 4.511719 -5.691406 C 4.785156 -6.632812 4.945312 -7.652344 4.945312 -8.632812 C 4.945312 -9.339844 4.867188 -9.925781 5.023438 -10.632812 L 5.21875 -10.164062 C 5.53125 -9.300781 5.847656 -8.515625 6.238281 -7.691406 C 7.21875 -5.648438 8.59375 -3.609375 9.101562 -1.375 C 9.300781 -0.351562 9.886719 2.117188 11.261719 2.117188 C 11.457031 2.117188 11.652344 2.238281 11.851562 2.277344 C 13.066406 1.921875 13.261719 -1.136719 13.261719 -2.199219 C 13.261719 -3.019531 13.496094 -3.765625 13.496094 -4.550781 L 13.496094 -4.707031 C 13.417969 -5.414062 13.378906 -5.925781 13.734375 -6.59375 C 13.734375 -6.671875 13.851562 -7.886719 13.929688 -7.964844 L 13.851562 -8.398438 C 14.125 -9.179688 14.164062 -10.671875 14.164062 -11.574219 C 14.164062 -13.378906 14.597656 -17.851562 12.125 -17.851562 C 10.710938 -17.851562 10.710938 -12.753906 10.554688 -11.730469 C 10.476562 -10.90625 10.164062 -9.847656 10.164062 -8.984375 C 10.164062 -8.238281 9.691406 -7.496094 9.691406 -6.710938 Z M 9.730469 -6.355469 "/></g></g></g><g fill="#ff914d" fill-opacity="1"><g transform="translate(297.217616, 111.073836)"><g><path d="M 9.613281 -12.046875 C 9.222656 -12.046875 5.648438 -11.613281 5.453125 -11.535156 C 5.609375 -12.164062 5.964844 -12.320312 5.964844 -13.027344 C 5.964844 -13.457031 5.847656 -13.851562 5.691406 -14.242188 C 5.847656 -14.675781 5.453125 -15.851562 5.453125 -16.402344 L 5.492188 -16.558594 C 5.730469 -16.910156 5.769531 -17.382812 5.847656 -17.773438 L 6.003906 -17.773438 C 6.238281 -17.773438 6.75 -17.617188 6.984375 -17.539062 L 7.023438 -17.578125 L 7.296875 -17.5 L 7.335938 -17.5 L 7.613281 -17.851562 L 7.847656 -17.890625 L 8.042969 -17.8125 L 8.320312 -17.890625 C 8.515625 -17.851562 8.710938 -17.8125 8.90625 -17.8125 C 9.496094 -17.8125 10.085938 -18.011719 10.671875 -18.011719 C 10.828125 -18.011719 10.988281 -18.011719 11.144531 -17.972656 C 11.339844 -18.011719 11.574219 -18.167969 11.769531 -18.167969 L 11.929688 -18.089844 C 12.28125 -18.128906 12.398438 -18.558594 12.515625 -18.875 L 12.398438 -19.1875 L 12.4375 -19.304688 C 12.28125 -19.5 12.007812 -19.777344 11.730469 -19.777344 C 8.4375 -19.777344 5.257812 -19.539062 1.960938 -19.109375 L 2.15625 -19.109375 C 2.628906 -19.109375 1.726562 -18.753906 2.199219 -17.460938 L 2.355469 -17.5 L 2.667969 -16.988281 C 2.550781 -15.261719 2.117188 -13.535156 2.117188 -11.769531 C 2 -11.535156 1.882812 -11.261719 2.078125 -9.652344 C 2.078125 -7.101562 1.136719 -4.355469 1.214844 -1.882812 L 1.414062 -1.375 C 1.097656 -0.824219 2.199219 0.15625 2.746094 0.15625 C 2.941406 -0.117188 3.21875 -0.390625 3.570312 -0.390625 L 3.6875 -0.511719 C 4.277344 -0.511719 8.003906 -0.667969 8.320312 -0.902344 L 8.515625 -0.863281 C 10.003906 -1.414062 11.890625 -0.746094 11.890625 -2.785156 C 11.890625 -3.21875 11.851562 -3.84375 11.300781 -3.84375 C 10.042969 -3.84375 8.75 -2.902344 7.535156 -2.902344 L 6.511719 -2.941406 L 6.433594 -2.902344 L 6.316406 -2.902344 C 5.769531 -2.902344 5.296875 -2.667969 4.746094 -2.589844 C 4.984375 -3.570312 4.746094 -7.925781 5.609375 -7.925781 L 5.570312 -7.925781 L 5.925781 -8.710938 C 5.886719 -8.945312 5.925781 -9.222656 6.003906 -9.457031 L 5.925781 -9.730469 L 6.003906 -9.925781 L 6.277344 -9.808594 C 6.632812 -9.769531 8.789062 -10.085938 9.0625 -10.320312 C 9.261719 -10.320312 9.457031 -10.320312 9.613281 -10.28125 C 10.003906 -10.398438 10.28125 -10.988281 10.398438 -11.339844 C 10.320312 -11.691406 10.003906 -12.046875 9.613281 -12.046875 Z M 9.613281 -12.046875 "/></g></g></g></svg>